<?xml version="1.0" encoding="utf-8"?>
<!-- Generator: Adobe Illustrator 19.2.1, SVG Export Plug-In . SVG Version: 6.00 Build 0)  -->
<svg version="1.1" id="Layer_1" xmlns="http://www.w3.org/2000/svg" xmlns:xlink="http://www.w3.org/1999/xlink" x="0px" y="0px"
	 width="512px" height="512px" viewBox="0 0 512 512" style="enable-background:new 0 0 512 512;" xml:space="preserve">
<path d="M458.5342407,154.909317l0.019928-77.9062042l16.4862671-0.019928l0.039856,73.5603638L512,140.6557617v41.0462952
	l-36.9197083,9.9475861v100.3131866L512,282.0750427v41.0263367l-36.9197083,9.9476013l-0.0199585,72.6034851l-16.5261536-0.019928
	v-68.4370422l-73.6401062,19.8553162l-0.019928,77.9660034h-16.625824l-0.019928-73.5802917l-36.8001099,9.8678284v-41.2655334
	l36.8001099-9.9276733V220.0371857l-36.8001099,9.8678436v-41.0462646l36.8001099-9.9276733l0.019928-72.7031479
	l16.6457825,0.0199356v68.5167847L458.5342407,154.909317z M384.914032,215.8508148l-0.019928,100.1138458l73.6400757-19.8553162
	l-0.0199585-100.0939178L384.914032,215.8508148z M2.0014687,283.0319824
	c14.0847569,120.0618896,87.3190308,146.0320129,152.5031891,147.2801514
	c69.7111816,6.561615,128.6700287-41.4049072,144.5690155-112.8922424l-44.5149841-11.3629456
	c-23.5821686,102.8512878-114.9797516,97.5141907-160.6366272,67.3206787
	c-68.5896454-39.9491882-68.5896454-236.0324402,37.1423035-251.2517395
	c72.7941742-15.4935608,105.7559357,25.6931229,118.4308777,67.6299057l43.7973328-10.3662262
	c-16.8995056-55.654686-50.8571472-89.6540833-112.5334015-97.4624786
	C59.6137123,66.56147-13.2273006,157.9698029,2.0014687,283.0319824z"/>
</svg>
