<?xml version="1.0" encoding="utf-8"?>
<!-- Generator: Adobe Illustrator 19.2.1, SVG Export Plug-In . SVG Version: 6.00 Build 0)  -->
<svg version="1.1" id="Layer_1" xmlns="http://www.w3.org/2000/svg" xmlns:xlink="http://www.w3.org/1999/xlink" x="0px" y="0px"
	 width="512px" height="512px" viewBox="0 0 512 512" style="enable-background:new 0 0 512 512;" xml:space="preserve">
<path d="M188.57724,167.303894h134.84552c0,0,4.8780518-66.3888016-67.6809082-66.3888016
	C220.5742798,100.9150925,188.57724,133.72229,188.57724,167.303894z M69.2311249,93.9914093H0v324.0171509h79.0473251
	C79.0473251,418.0100403-54.2479706,271.2022095,69.2311249,93.9914093z M512,93.9914093v324.0171509h-65.098114
	c0,0,40.2987366-46.3684387,45.4656982-64.9683533l-76.980835-38.2322693c0,0-36.2258606,80.3859253-121.4126282,84.2142944
	c-91.963974,4.1329956-112.6303558-107.2045593-110.0461578-156.2870026h297.0731812
	c2.5827637-3.6167297,8.4432983-99.5941772-35.6495361-148.7438354H512z"/>
</svg>
