<?xml version="1.0" encoding="utf-8"?>
<!-- Generator: Adobe Illustrator 19.2.1, SVG Export Plug-In . SVG Version: 6.00 Build 0)  -->
<svg version="1.1" id="Layer_1" xmlns="http://www.w3.org/2000/svg" xmlns:xlink="http://www.w3.org/1999/xlink" x="0px" y="0px"
	 width="512px" height="512px" viewBox="0 0 512 512" style="enable-background:new 0 0 512 512;" xml:space="preserve">
<path d="M136.5923767,231.9358063l95.1966248-155.4918518c6.5583191-7.9616241,0.2102509-17.6247177-8.9811707-17.5031166
	h-87.2359772c-15.6828766-0.2020988-29.1769485,11.1026115-35.8521576,24.6699333L7.6284747,234.7150726
	c-8.6108618,10.8800049-10.2698879,26.3388824-3.2408242,38.5529633l96.0784225,156.2385559
	c6.3214417,12.6912231,18.3196869,22.7577209,32.9486923,23.5634155h80.953064
	c13.0119324,0.0526428,26.272049-5.6813049,16.2716827-19.4447937
	c-33.5431824-54.8552551-67.065033-109.8100281-100.5939941-164.686554
	C123.9804535,261.8044128,124.5611267,257.9750366,136.5923767,231.9358063z M376.7503052,278.3995056l-96.2135315,157.1842957
	c-5.7073059,8.6371765,0.7992859,17.7827454,10.2627563,17.4862061h87.3673096
	c15.1950378-0.5468445,28.4821777-11.0171814,34.8388367-24.5069885l93.2417297-152.9922791
	c7.7240906-11.4510498,7.6159973-27.2768707,0-38.7549438L408.6685181,77.8963547
	c-6.6702271-11.1786957-19.2711487-19.009819-32.3414001-18.9557686h-81.2793884
	c-25.4229126-0.5992622-17.0903015,14.2368736-12.8207397,21.2943687L384.6485291,245.58284
	C384.6980896,261.3202209,383.4278259,268.151123,376.7503052,278.3995056z"/>
</svg>
