<?xml version="1.0" encoding="utf-8"?>
<!-- Generator: Adobe Illustrator 19.2.1, SVG Export Plug-In . SVG Version: 6.00 Build 0)  -->
<svg version="1.1" id="Layer_1" xmlns="http://www.w3.org/2000/svg" xmlns:xlink="http://www.w3.org/1999/xlink" x="0px" y="0px"
	 width="374px" height="512px" viewBox="0 0 374 512" style="enable-background:new 0 0 374 512;" xml:space="preserve">
<path d="M239.0118713,406.422699c0,0,11.6311035,7.3658752,27.8756104,13.7458191
	c-99.174942,42.9320374-224.4581299-2.4917297-146.5574799-24.4741211
	C91.6949234,412.7485657,178.6427002,419.7443848,239.0118713,406.422699z M255.0159149,352.8186951
	c0,0,8.105545,8.2996216,20.851059,12.8384399c-119.9175415,35.429718-253.4658813,2.7998047-167.6535339-25.9700317
	C67.9366531,370.2315979,213.5318909,363.3997192,255.0159149,352.8186951z M210.3703766,244.6625824
	c24.436142,28.4167023-6.4202881,53.9879608-6.4202881,53.9879608s62.0490265-32.3525391,33.5523529-72.8638
	c-26.614624-37.7799225-47.025528-56.5510864,63.4676514-121.2726364
	C300.9700928,104.5155487,127.5387344,148.266037,210.3703766,244.6625824z M341.5491943,437.1517334
	c0,0,14.3202209,11.921936-15.7846985,21.1458435c-57.2450867,17.5149231-238.26828,22.8039551-288.5427246,0.6978149
	c-18.9775639-8.1548157,19.7995567-22.8919678,43.9608307-23.2592163
	c-20.1027145-14.3031921-129.9347992,28.0849915-55.7888489,40.2242432
	C227.6089325,509.0728455,394.0115051,461.0512695,341.5491943,437.1517334z M295.1947632,300.2868347
	c0,0-13.4362488,5.811554-23.1572876,12.5156555c-93.5028687,24.8361206-274.1449585,13.2824097-222.124939-12.1225586
	c43.9718895-21.4594116,79.7302399-19.0260925,79.7302399-19.0260925
	C-9.164691,316.7038269,151.9187317,323.8706665,295.1947632,300.2868347z M294.8214111,374.8813782
	c95.0485229-49.8838806,51.1018066-97.8274231,20.4268799-91.3672485
	c-7.5183411,1.5805054-10.8705139,2.9498901-10.8705139,2.9498901s2.7911072-4.4157715,8.1217957-6.3274841
	c60.6845398-21.5476685,107.352478,63.5523376-19.5891418,97.2575989
	C292.9104309,377.4153137,294.3844604,376.0673828,294.8214111,374.8813782z M237.5121002,0
	c0,0,52.6387482,53.1810265-49.926239,134.9610596c-82.2434998,65.603775-18.75,102.9978638-0.0305939,145.7440491
	c-48.0088959-43.7342529-83.2409821-82.2575836-59.6047058-118.1013641
	C162.6203766,109.9908752,258.7322693,84.4784317,237.5121002,0z M67.36483,496.4492493
	c121.5217209,16.2392883,275.1564331,3.1749878,306.2763672-33.2434998
	C369.7778931,519.9342041,114.5978394,521.6831665,67.36483,496.4492493z"/>
</svg>
