<?xml version="1.0" encoding="utf-8"?>
<!-- Generator: Adobe Illustrator 19.2.1, SVG Export Plug-In . SVG Version: 6.00 Build 0)  -->
<svg version="1.1" id="Layer_1" xmlns="http://www.w3.org/2000/svg" xmlns:xlink="http://www.w3.org/1999/xlink" x="0px" y="0px"
	 width="471px" height="512px" viewBox="0 0 471 512" style="enable-background:new 0 0 471 512;" xml:space="preserve">
<path d="M0.183509,36.4387398l40.5910034,364.0538635c2.1180725,14.1902466,10.7534027,24.4816895,21.928791,30.0428772
	L221.20961,508.4911804c10.1640778,4.3006287,20.711853,5.0415955,31.8829041,0l158.1288605-77.955719
	c12.9690247-6.4874268,20.6891174-19.9518738,20.0875244-34.1004028l39.4437866-361.601532
	C470.7526855,16.5506878,454.309906,0,434.2577515,0L36.7192612,0.0023145
	C16.6671143,0.0023145-2.0625093,16.9998131,0.183509,36.4387398z M324.6032104,304.4647217v-23.5907898
	c0.2681885-29.1891937-10.1066895-33.8141327-35.3861389-32.9857788v-27.4655457
	c21.5648804,0.432724,35.2910767-0.8408356,35.3861389-32.802948v-25.4308319
	c-0.0026245-30.0236053,13.5238342-45.8441238,47.3643188-45.3414841l24.6995544,0.0000076v27.831192
	c-14.4381714-0.6665802-24.4599304,0.8945923-28.7571411,5.3433075
	c-14.9763489,17.3096466,11.35672,76.642334-27.4596558,83.3049011
	c38.699585,8.9856415,13.1682129,64.6348572,27.4596558,83.4877014c3.5209656,4.8055725,14.2848206,5.9223938,28.7571411,5.5320129
	v27.6424866h-24.6995544C342.3360596,349.9889526,324.5791626,339.1993103,324.6032104,304.4647217z M123.1558151,202.5466461
	c17.1223679-21.9187164,51.0905228-20.6435547,60.4513168,3.1316833l0.0000153-16.2186432h23.77948v85.5164795
	c31.0759125-3.0274353,41.235321-56.6345673,16.7730408-89.3853455
	c-37.5749817-51.3345795-113.2302017-34.6904297-135.6468506,14.7442169
	c-38.9092178,91.9951019,54.4230881,168.6609344,124.7715378,107.821579l12.1610413,19.8988037
	c-61.1763916,49.9404297-121.842392,12.6075134-137.8585052-6.817688
	c-44.876297-45.972229-42.8999062-145.7396545,33.3632278-181.7196198
	c78.3185043-30.8526382,137.8525696,27.0950928,137.8525696,88.4652863
	c-1.545929,51.9612122-33.1176758,71.5133362-75.1955414,70.4007263v-18.9846497
	c-9.5386353,24.1185303-41.8182831,23.5609436-58.0566177,5.9822388
	C105.5101395,263.6871033,107.2907486,222.8558655,123.1558151,202.5466461z M181.2126617,242.3560944
	c0-43.5889587-44.232666-43.5889587-44.232666,0C135.4359894,285.8718567,182.2367859,286.4326477,181.2126617,242.3560944z"/>
</svg>
