<?xml version="1.0" encoding="utf-8"?>
<!-- Generator: Adobe Illustrator 19.2.1, SVG Export Plug-In . SVG Version: 6.00 Build 0)  -->
<svg version="1.1" id="Layer_1" xmlns="http://www.w3.org/2000/svg" xmlns:xlink="http://www.w3.org/1999/xlink" x="0px" y="0px"
	 width="512px" height="512px" viewBox="0 0 512 512" style="enable-background:new 0 0 512 512;" xml:space="preserve">
<path d="M242.9535828,115.1543884c152.3985291-5.9736786,293.3975525,67.4332733,265.4949646,165.2185364
	c-40.8971558,141.0980835-367.4043884,148.4278564-467.8638,53.9142151
	C-61.8676796,241.72229,38.4275932,122.2837677,242.9535828,115.1543884z M462.3827515,219.2103729
	C343.6118774,94.9637833,21.769062,152.9354706,34.9950409,264.0630188
	C100.3973312,437.4631958,562.8381958,360.1676025,462.3827515,219.2103729z M152.8372345,268.4469604l6.379837-38.2794647
	h16.5879364c8.9318542,0,15.311676,3.8279419,15.311676,11.4838715
	c-1.2759552,21.6915283-11.4838715,25.5198059-22.9677734,26.7955627L152.8372345,268.4469604z M142.6291351,314.3824768
	l5.1040649-26.7955627h22.9677734c21.6915131,1.2757874,45.9350281-16.5879211,45.9350281-47.2112885
	c0-17.8637238-10.2076263-28.07164-30.6233673-29.3476105h-47.2113037l-20.415741,103.3539734L142.6291351,314.3824768z
	 M214.9789429,287.5830383h24.2435455l11.4838715-57.4194183h19.1399536c8.9316406,0,8.9316406,3.8277893,7.6556091,10.2076111
	l-8.9318542,47.2112885h25.5197754l8.9318542-52.3134003c2.5515747-12.7596741-5.1040344-22.9675903-25.5197754-24.2435455
	h-22.9677734l5.1040649-26.7955627h-24.2435455L214.9789429,287.5830383z M295.3639832,314.3819885l20.415741-103.3539734
	h47.2113037c20.415741,1.2759705,30.6233826,11.4838867,30.6233826,29.3475952
	c0,30.6233826-24.2435303,48.4870911-45.9350281,47.2113037h-22.9677734l-5.1040649,26.7955627L295.3639832,314.3819885z
	 M345.1273193,268.4469299c11.4838867-1.2757568,21.691803-5.1040344,22.9677734-26.7955627
	c0-7.6559296-6.3798218-11.4838715-15.311676-11.4838715h-16.5879517l-6.3798218,38.2794647L345.1273193,268.4469299z"/>
</svg>
